<?xml version="1.0" standalone="no"?><!DOCTYPE svg PUBLIC "-//W3C//DTD SVG 1.1//EN" "http://www.w3.org/Graphics/SVG/1.1/DTD/svg11.dtd"><svg t="1697685016902" class="icon" viewBox="0 0 1024 1024" version="1.1" xmlns="http://www.w3.org/2000/svg" p-id="11351" data-darkreader-inline-fill="" xmlns:xlink="http://www.w3.org/1999/xlink" width="200" height="200"><path d="M298.688 170.688h42.688v42.688h-42.688z" p-id="11352"></path><path d="M341.312 170.688H384v42.688h-42.688z" fill="#FFF100" p-id="11353" data-darkreader-inline-fill="" style="--darkreader-inline-fill: #fff21a;"></path><path d="M384 170.688h42.688v42.688H384zM426.688 170.688h42.688v42.688h-42.688z" fill="#E50046" p-id="11354" data-darkreader-inline-fill="" style="--darkreader-inline-fill: #ff2c6c;"></path><path d="M469.312 170.688H512v42.688h-42.688z" fill="#E50046" p-id="11355" data-darkreader-inline-fill="" style="--darkreader-inline-fill: #ff2c6c;"></path><path d="M298.688 213.312h42.688V256h-42.688z" p-id="11356"></path><path d="M341.312 213.312H384V256h-42.688zM384 213.312h42.688V256H384zM426.688 213.312h42.688V256h-42.688z" fill="#E50046" p-id="11357" data-darkreader-inline-fill="" style="--darkreader-inline-fill: #ff2c6c;"></path><path d="M469.312 213.312H512V256h-42.688z" fill="#E50046" p-id="11358" data-darkreader-inline-fill="" style="--darkreader-inline-fill: #ff2c6c;"></path><path d="M256 256h42.688v42.688H256z" p-id="11359"></path><path d="M298.688 256h42.688v42.688h-42.688z" fill="#E50046" p-id="11360" data-darkreader-inline-fill="" style="--darkreader-inline-fill: #ff2c6c;"></path><path d="M341.312 256H384v42.688h-42.688zM384 256h42.688v42.688H384z" fill="#E50046" p-id="11361" data-darkreader-inline-fill="" style="--darkreader-inline-fill: #ff2c6c;"></path><path d="M426.688 256h42.688v42.688h-42.688z" fill="#FFF100" p-id="11362" data-darkreader-inline-fill="" style="--darkreader-inline-fill: #fff21a;"></path><path d="M469.312 256H512v42.688h-42.688z" fill="#FFF100" p-id="11363" data-darkreader-inline-fill="" style="--darkreader-inline-fill: #fff21a;"></path><path d="M256 298.688h42.688v42.688H256z" p-id="11364"></path><path d="M298.688 298.688h42.688v42.688h-42.688z" fill="#E50046" p-id="11365" data-darkreader-inline-fill="" style="--darkreader-inline-fill: #ff2c6c;"></path><path d="M341.312 298.688H384v42.688h-42.688zM384 298.688h42.688v42.688H384z" fill="#E50046" p-id="11366" data-darkreader-inline-fill="" style="--darkreader-inline-fill: #ff2c6c;"></path><path d="M426.688 298.688h42.688v42.688h-42.688z" fill="#FFF100" p-id="11367" data-darkreader-inline-fill="" style="--darkreader-inline-fill: #fff21a;"></path><path d="M469.312 298.688H512v42.688h-42.688z" fill="#FFF100" p-id="11368" data-darkreader-inline-fill="" style="--darkreader-inline-fill: #fff21a;"></path><path d="M512 170.688h42.688v42.688H512z" fill="#E50046" p-id="11369" data-darkreader-inline-fill="" style="--darkreader-inline-fill: #ff2c6c;"></path><path d="M512 213.312h42.688V256H512zM512 256h42.688v42.688H512zM512 298.688h42.688v42.688H512z" fill="#FFF100" p-id="11370" data-darkreader-inline-fill="" style="--darkreader-inline-fill: #fff21a;"></path><path d="M554.688 170.688h42.688v42.688h-42.688z" fill="#E50046" p-id="11371" data-darkreader-inline-fill="" style="--darkreader-inline-fill: #ff2c6c;"></path><path d="M554.688 213.312h42.688V256h-42.688zM554.688 256h42.688v42.688h-42.688z" fill="#FFF100" p-id="11372" data-darkreader-inline-fill="" style="--darkreader-inline-fill: #fff21a;"></path><path d="M554.688 298.688h42.688v42.688h-42.688zM597.312 170.688H640v42.624h-42.688z" fill="#E50046" p-id="11373" data-darkreader-inline-fill="" style="--darkreader-inline-fill: #ff2c6c;"></path><path d="M597.312 213.312H640V256h-42.688zM597.312 256H640v42.688h-42.688z" fill="#FFF100" p-id="11374" data-darkreader-inline-fill="" style="--darkreader-inline-fill: #fff21a;"></path><path d="M597.312 298.688H640v42.688h-42.688z" fill="#E50046" p-id="11375" data-darkreader-inline-fill="" style="--darkreader-inline-fill: #ff2c6c;"></path><path d="M640 213.312h42.688V256H640zM640 256h42.688v42.688H640zM682.688 213.312h42.624V256h-42.624z" fill="#FFF100" p-id="11376" data-darkreader-inline-fill="" style="--darkreader-inline-fill: #fff21a;"></path><path d="M640 170.688h42.688v42.624H640zM682.688 170.688h42.688v42.624h-42.688z" fill="#E50046" p-id="11377" data-darkreader-inline-fill="" style="--darkreader-inline-fill: #ff2c6c;"></path><path d="M725.312 170.688H768v42.624h-42.688z" fill="#E50046" p-id="11378" data-darkreader-inline-fill="" style="--darkreader-inline-fill: #ff2c6c;"></path><path d="M426.688 42.688h42.688v42.688h-42.688z" p-id="11379"></path><path d="M469.312 42.688H512v42.688h-42.688zM384 85.312h42.688V128H384z" p-id="11380"></path><path d="M426.688 85.312h42.688V128h-42.688z" fill="#FFF100" p-id="11381" data-darkreader-inline-fill="" style="--darkreader-inline-fill: #fff21a;"></path><path d="M469.312 85.312H512V128h-42.688zM512 42.688h42.688v42.688H512z" fill="#FFF100" p-id="11382" data-darkreader-inline-fill="" style="--darkreader-inline-fill: #fff21a;"></path><path d="M512 85.312h42.688V128H512zM554.688 42.688h42.688v42.688h-42.688z" fill="#FFF100" p-id="11383" data-darkreader-inline-fill="" style="--darkreader-inline-fill: #fff21a;"></path><path d="M554.688 85.312h42.688V128h-42.688z" fill="#FFF100" p-id="11384" data-darkreader-inline-fill="" style="--darkreader-inline-fill: #fff21a;"></path><path d="M597.312 42.688H640v42.688h-42.688z" fill="#FFF100" p-id="11385" data-darkreader-inline-fill="" style="--darkreader-inline-fill: #fff21a;"></path><path d="M597.312 85.312H640V128h-42.688zM640 42.688h42.688v42.688H640z" fill="#FFF100" p-id="11386" data-darkreader-inline-fill="" style="--darkreader-inline-fill: #fff21a;"></path><path d="M640 85.312h42.688V128H640zM682.688 42.688h42.688v42.688h-42.688z" fill="#FFF100" p-id="11387" data-darkreader-inline-fill="" style="--darkreader-inline-fill: #fff21a;"></path><path d="M682.688 85.312h42.688V128h-42.688z" fill="#FFF100" p-id="11388" data-darkreader-inline-fill="" style="--darkreader-inline-fill: #fff21a;"></path><path d="M725.312 42.688H768v42.688h-42.688z" fill="#FFF100" p-id="11389" data-darkreader-inline-fill="" style="--darkreader-inline-fill: #fff21a;"></path><path d="M725.312 85.312H768V128h-42.688z" fill="#FFF100" p-id="11390" data-darkreader-inline-fill="" style="--darkreader-inline-fill: #fff21a;"></path><path d="M768 42.688h42.688v42.688H768z" p-id="11391"></path><path d="M768 85.312h42.688V128H768zM682.688 298.688h42.688v42.688h-42.688zM725.312 256H768v42.688h-42.688z" fill="#FFF100" p-id="11392" data-darkreader-inline-fill="" style="--darkreader-inline-fill: #999100;"></path><path d="M725.312 298.688H768v42.688h-42.688z" fill="#FFF100" p-id="11393" data-darkreader-inline-fill="" style="--darkreader-inline-fill: #fff21a;"></path><path d="M768 213.312h42.688V256H768zM768 256h42.688v42.688H768zM768 298.688h42.688v42.688H768z" fill="#E50046" p-id="11394" data-darkreader-inline-fill="" style="--darkreader-inline-fill: #ff2c6c;"></path><path d="M810.688 170.688h42.688v42.688h-42.688z" fill="#FFF100" p-id="11395" data-darkreader-inline-fill="" style="--darkreader-inline-fill: #fff21a;"></path><path d="M810.688 213.312h42.688V256h-42.688z" fill="#FFF100" p-id="11396" data-darkreader-inline-fill="" style="--darkreader-inline-fill: #fff21a;"></path><path d="M810.688 256h42.688v42.688h-42.688zM810.688 298.688h42.688v42.688h-42.688z" fill="#E50046" p-id="11397" data-darkreader-inline-fill="" style="--darkreader-inline-fill: #ff2c6c;"></path><path d="M853.312 213.312H896V256h-42.688zM853.312 256H896v42.688h-42.688zM853.312 298.688H896v42.688h-42.688zM896 256h42.688v42.688H896zM896 298.688h42.688v42.688H896z" fill="#FFF100" p-id="11398" data-darkreader-inline-fill="" style="--darkreader-inline-fill: #fff21a;"></path><path d="M938.624 298.688h42.688v42.688h-42.688z" fill="#E50046" p-id="11399" data-darkreader-inline-fill="" style="--darkreader-inline-fill: #ff2c6c;"></path><path d="M682.688 384h42.688v42.688h-42.688zM682.688 426.688h42.688v42.688h-42.688z" fill="#FFF100" p-id="11400" data-darkreader-inline-fill="" style="--darkreader-inline-fill: #fff21a;"></path><path d="M682.688 469.312h42.688V512h-42.688zM725.312 384H768v42.688h-42.688z" fill="#FFF100" p-id="11401" data-darkreader-inline-fill="" style="--darkreader-inline-fill: #fff21a;"></path><path d="M725.312 426.688H768v42.688h-42.688z" fill="#FFF100" p-id="11402" data-darkreader-inline-fill="" style="--darkreader-inline-fill: #fff21a;"></path><path d="M725.312 469.312H768V512h-42.688zM682.688 512h42.688v42.688h-42.688z" fill="#E50046" p-id="11403" data-darkreader-inline-fill="" style="--darkreader-inline-fill: #ff2c6c;"></path><path d="M725.312 512H768v42.688h-42.688zM768 384h42.688v42.688H768zM768 426.688h42.688v42.688H768z" fill="#E50046" p-id="11404" data-darkreader-inline-fill="" style="--darkreader-inline-fill: #ff2c6c;"></path><path d="M768 469.312h42.688V512H768z" fill="#E50046" p-id="11405" data-darkreader-inline-fill="" style="--darkreader-inline-fill: #ff2c6c;"></path><path d="M768 512h42.688v42.688H768z" fill="#FFF100" p-id="11406" data-darkreader-inline-fill="" style="--darkreader-inline-fill: #fff21a;"></path><path d="M682.688 554.688h42.688v42.688h-42.688z" fill="#E50046" p-id="11407" data-darkreader-inline-fill="" style="--darkreader-inline-fill: #ff2c6c;"></path><path d="M682.688 597.312h42.688V640h-42.688z" fill="#FFF100" p-id="11408" data-darkreader-inline-fill="" style="--darkreader-inline-fill: #fff21a;"></path><path d="M725.312 554.688H768v42.688h-42.688z" fill="#FFF100" p-id="11409" data-darkreader-inline-fill="" style="--darkreader-inline-fill: #fff21a;"></path><path d="M725.312 597.312H768V640h-42.688zM682.688 640h42.688v42.688h-42.688z" fill="#FFF100" p-id="11410" data-darkreader-inline-fill="" style="--darkreader-inline-fill: #fff21a;"></path><path d="M725.312 640H768v42.688h-42.688zM768 554.688h42.688v42.688H768z" fill="#FFF100" p-id="11411" data-darkreader-inline-fill="" style="--darkreader-inline-fill: #fff21a;"></path><path d="M768 597.312h42.688V640H768z" fill="#FFF100" p-id="11412" data-darkreader-inline-fill="" style="--darkreader-inline-fill: #fff21a;"></path><path d="M768 640h42.688v42.688H768zM682.688 682.688h42.688v42.688h-42.688z" fill="#E50046" p-id="11413" data-darkreader-inline-fill="" style="--darkreader-inline-fill: #ff2c6c;"></path><path d="M725.312 682.688H768v42.688h-42.688z" fill="#E50046" p-id="11414" data-darkreader-inline-fill="" style="--darkreader-inline-fill: #ff2c6c;"></path><path d="M768 682.688h42.688v42.688H768zM682.688 725.312h42.688V768h-42.688z" p-id="11415"></path><path d="M725.312 725.312H768V768h-42.688z" p-id="11416"></path><path d="M810.688 384h42.688v42.688h-42.688zM810.688 426.688h42.688v42.688h-42.688z" fill="#E50046" p-id="11417" data-darkreader-inline-fill="" style="--darkreader-inline-fill: #ff2c6c;"></path><path d="M810.688 469.312h42.688V512h-42.688zM810.688 512h42.688v42.688h-42.688zM810.688 554.688h42.688v42.688h-42.688z" fill="#FFF100" p-id="11418" data-darkreader-inline-fill="" style="--darkreader-inline-fill: #fff21a;"></path><path d="M810.688 597.312h42.688V640h-42.688z" fill="#FFF100" p-id="11419" data-darkreader-inline-fill="" style="--darkreader-inline-fill: #fff21a;"></path><path d="M810.688 640h42.688v42.688h-42.688z" fill="#E50046" p-id="11420" data-darkreader-inline-fill="" style="--darkreader-inline-fill: #ff2c6c;"></path><path d="M810.688 682.688h42.688v42.688h-42.688z" p-id="11421"></path><path d="M853.312 384H896v42.688h-42.688zM853.312 426.688H896v42.688h-42.688z" fill="#FFF100" p-id="11422" data-darkreader-inline-fill="" style="--darkreader-inline-fill: #fff21a;"></path><path d="M853.312 469.312H896V512h-42.688zM896 384h42.688v42.688H896zM896 426.688h42.688v42.688H896z" fill="#FFF100" p-id="11423" data-darkreader-inline-fill="" style="--darkreader-inline-fill: #fff21a;"></path><path d="M896 469.312h42.688V512H896zM853.312 512H896v42.688h-42.688z" fill="#FFF100" p-id="11424" data-darkreader-inline-fill="" style="--darkreader-inline-fill: #fff21a;"></path><path d="M896 512h42.688v42.688H896zM938.624 384h42.688v42.688h-42.688zM938.688 426.688h42.688v42.688h-42.688z" fill="#E50046" p-id="11425" data-darkreader-inline-fill="" style="--darkreader-inline-fill: #ff2c6c;"></path><path d="M938.688 469.312h42.688V512h-42.688z" fill="#E50046" p-id="11426" data-darkreader-inline-fill="" style="--darkreader-inline-fill: #ff2c6c;"></path><path d="M938.688 512h42.688v42.688h-42.688z" p-id="11427"></path><path d="M853.312 554.688H896v42.688h-42.688z" fill="#FFF100" p-id="11428" data-darkreader-inline-fill="" style="--darkreader-inline-fill: #fff21a;"></path><path d="M853.312 597.312H896V640h-42.688zM896 554.688h42.688v42.688H896z" fill="#E50046" p-id="11429" data-darkreader-inline-fill="" style="--darkreader-inline-fill: #ff2c6c;"></path><path d="M896 597.312h42.688V640H896zM853.312 640H896v42.688h-42.688zM938.688 554.688h42.688v42.688h-42.688zM256 384h42.688v42.688H256z" p-id="11430"></path><path d="M298.688 384h42.688v42.688h-42.688z" fill="#E50046" p-id="11431" data-darkreader-inline-fill="" style="--darkreader-inline-fill: #ff2c6c;"></path><path d="M341.312 384H384v42.688h-42.688z" fill="#E50046" p-id="11432" data-darkreader-inline-fill="" style="--darkreader-inline-fill: #ff2c6c;"></path><path d="M384 384h42.688v42.688H384zM426.688 384h42.688v42.688h-42.688z" fill="#FFF100" p-id="11433" data-darkreader-inline-fill="" style="--darkreader-inline-fill: #fff21a;"></path><path d="M469.312 384H512v42.688h-42.688z" fill="#E50046" p-id="11434" data-darkreader-inline-fill="" style="--darkreader-inline-fill: #ff2c6c;"></path><path d="M256 426.688h42.688v42.688H256z" p-id="11435"></path><path d="M298.688 426.688h42.688v42.688h-42.688z" fill="#E50046" p-id="11436" data-darkreader-inline-fill="" style="--darkreader-inline-fill: #ff2c6c;"></path><path d="M341.312 426.688H384v42.688h-42.688z" fill="#E50046" p-id="11437" data-darkreader-inline-fill="" style="--darkreader-inline-fill: #ff2c6c;"></path><path d="M384 426.688h42.688v42.688H384zM426.688 426.688h42.688v42.688h-42.688z" fill="#FFF100" p-id="11438" data-darkreader-inline-fill="" style="--darkreader-inline-fill: #fff21a;"></path><path d="M469.312 426.688H512v42.688h-42.688zM298.688 469.312h42.688V512h-42.688z" fill="#E50046" p-id="11439" data-darkreader-inline-fill="" style="--darkreader-inline-fill: #b70038;"></path><path d="M384 469.312h42.688V512H384zM426.688 469.312h42.688V512h-42.688z" fill="#FFF100" p-id="11440" data-darkreader-inline-fill="" style="--darkreader-inline-fill: #fff21a;"></path><path d="M512 384h42.688v42.688H512zM512 426.688h42.688v42.688H512z" fill="#E50046" p-id="11441" data-darkreader-inline-fill="" style="--darkreader-inline-fill: #ff2c6c;"></path><path d="M512 469.312h42.688V512H512z" fill="#E50046" p-id="11442" data-darkreader-inline-fill="" style="--darkreader-inline-fill: #ff2c6c;"></path><path d="M298.688 512h42.688v42.688h-42.688z" p-id="11443"></path><path d="M384 512h42.688v42.688H384z" fill="#E50046" p-id="11444" data-darkreader-inline-fill="" style="--darkreader-inline-fill: #ff2c6c;"></path><path d="M426.688 512h42.688v42.688h-42.688z" fill="#FFF100" p-id="11445" data-darkreader-inline-fill="" style="--darkreader-inline-fill: #fff21a;"></path><path d="M554.688 384h42.688v42.688h-42.688zM554.688 426.688h42.688v42.688h-42.688z" fill="#E50046" p-id="11446" data-darkreader-inline-fill="" style="--darkreader-inline-fill: #ff2c6c;"></path><path d="M597.312 384H640v42.688h-42.688zM597.312 426.688H640v42.688h-42.688z" fill="#E50046" p-id="11447" data-darkreader-inline-fill="" style="--darkreader-inline-fill: #ff2c6c;"></path><path d="M597.312 469.312H640V512h-42.688zM554.688 512h42.688v42.688h-42.688z" fill="#E50046" p-id="11448" data-darkreader-inline-fill="" style="--darkreader-inline-fill: #ff2c6c;"></path><path d="M597.312 512H640v42.688h-42.688z" fill="#E50046" p-id="11449" data-darkreader-inline-fill="" style="--darkreader-inline-fill: #ff2c6c;"></path><path d="M298.688 554.688h42.688v42.688h-42.688z" p-id="11450"></path><path d="M384 554.688h42.688v42.688H384z" fill="#E50046" p-id="11451" data-darkreader-inline-fill="" style="--darkreader-inline-fill: #ff2c6c;"></path><path d="M426.688 554.688h42.688v42.688h-42.688z" fill="#FFF100" p-id="11452" data-darkreader-inline-fill="" style="--darkreader-inline-fill: #fff21a;"></path><path d="M298.688 597.312h42.688V640h-42.688z" p-id="11453"></path><path d="M426.688 597.312h42.688V640h-42.688z" fill="#E50046" p-id="11454" data-darkreader-inline-fill="" style="--darkreader-inline-fill: #ff2c6c;"></path><path d="M512 554.688h42.688v42.688H512z" fill="#FFF100" p-id="11455" data-darkreader-inline-fill="" style="--darkreader-inline-fill: #fff21a;"></path><path d="M512 597.312h42.688V640H512z" fill="#FFF100" p-id="11456" data-darkreader-inline-fill="" style="--darkreader-inline-fill: #fff21a;"></path><path d="M256 640h42.688v42.688H256z" p-id="11457"></path><path d="M298.688 640h42.688v42.688h-42.688z" fill="#FFFFFF" p-id="11458" data-darkreader-inline-fill="" style="--darkreader-inline-fill: #e8e6e3;"></path><path d="M341.312 640H384v42.688h-42.688z" p-id="11459"></path><path d="M384 640h42.688v42.688H384zM426.688 640h42.688v42.688h-42.688z" fill="#E50046" p-id="11460" data-darkreader-inline-fill="" style="--darkreader-inline-fill: #ff2c6c;"></path><path d="M469.312 640H512v42.688h-42.688zM512 640h42.688v42.688H512zM597.312 554.688H640v42.688h-42.688z" fill="#E50046" p-id="11461" data-darkreader-inline-fill="" style="--darkreader-inline-fill: #ff2c6c;"></path><path d="M597.312 597.312H640V640h-42.688zM554.688 640h42.688v42.688h-42.688z" fill="#FFF100" p-id="11462" data-darkreader-inline-fill="" style="--darkreader-inline-fill: #fff21a;"></path><path d="M597.312 640H640v42.688h-42.688z" fill="#FFF100" p-id="11463" data-darkreader-inline-fill="" style="--darkreader-inline-fill: #fff21a;"></path><path d="M213.312 682.688H256v42.688h-42.688z" p-id="11464"></path><path d="M256 682.688h42.688v42.688H256zM298.688 682.688h42.688v42.688h-42.688z" fill="#FFFFFF" p-id="11465" data-darkreader-inline-fill="" style="--darkreader-inline-fill: #e8e6e3;"></path><path d="M341.312 682.688H384v42.688h-42.688z" fill="#E3E7E6" p-id="11466" data-darkreader-inline-fill="" style="--darkreader-inline-fill: #d8d4cf;"></path><path d="M384 682.688h42.688v42.688H384zM426.688 682.688h42.688v42.688h-42.688z" p-id="11467"></path><path d="M469.312 682.688H512v42.688h-42.688z" p-id="11468"></path><path d="M512 682.688h42.688v42.688H512zM554.688 682.688h42.688v42.688h-42.688z" fill="#E50046" p-id="11469" data-darkreader-inline-fill="" style="--darkreader-inline-fill: #ff2c6c;"></path><path d="M597.312 682.688H640v42.688h-42.688z" fill="#E50046" p-id="11470" data-darkreader-inline-fill="" style="--darkreader-inline-fill: #ff2c6c;"></path><path d="M170.688 725.312h42.688V768h-42.688zM341.312 725.312H384V768h-42.688zM128 768h42.688v42.688H128zM512 725.312h42.688V768H512zM554.688 725.312h42.688V768h-42.688z" p-id="11471"></path><path d="M213.312 768H256v42.688h-42.688z" fill="#FFFFFF" p-id="11472" data-darkreader-inline-fill="" style="--darkreader-inline-fill: #e8e6e3;"></path><path d="M256 768h42.688v42.688H256z" fill="#E3E7E6" p-id="11473" data-darkreader-inline-fill="" style="--darkreader-inline-fill: #d8d4cf;"></path><path d="M298.688 768h42.688v42.688h-42.688z" p-id="11474"></path><path d="M170.688 810.688h42.688v42.688h-42.688z" fill="#FFFFFF" p-id="11475" data-darkreader-inline-fill="" style="--darkreader-inline-fill: #e8e6e3;"></path><path d="M213.312 810.688H256v42.688h-42.688z" fill="#E3E7E6" p-id="11476" data-darkreader-inline-fill="" style="--darkreader-inline-fill: #d8d4cf;"></path><path d="M256 810.688h42.688v42.688H256z" p-id="11477"></path><path d="M85.312 853.312H128V896h-42.688zM128 853.312h42.688V896H128z" fill="#FFFFFF" p-id="11478" data-darkreader-inline-fill="" style="--darkreader-inline-fill: #e8e6e3;"></path><path d="M170.688 853.312h42.688V896h-42.688z" fill="#E3E7E6" p-id="11479" data-darkreader-inline-fill="" style="--darkreader-inline-fill: #d8d4cf;"></path><path d="M213.312 853.312H256V896h-42.688z" p-id="11480"></path><path d="M42.688 896h42.688v42.688H42.688z" fill="#FFFFFF" p-id="11481" data-darkreader-inline-fill="" style="--darkreader-inline-fill: #e8e6e3;"></path><path d="M85.312 896H128v42.688h-42.688z" fill="#FFFFFF" p-id="11482" data-darkreader-inline-fill="" style="--darkreader-inline-fill: #e8e6e3;"></path><path d="M128 896h42.688v42.688H128z" fill="#E3E7E6" p-id="11483" data-darkreader-inline-fill="" style="--darkreader-inline-fill: #d8d4cf;"></path><path d="M170.688 896h42.688v42.688h-42.688z" p-id="11484"></path><path d="M42.688 938.688h42.688v42.688H42.688z" fill="#E3E7E6" p-id="11485" data-darkreader-inline-fill="" style="--darkreader-inline-fill: #d8d4cf;"></path><path d="M85.312 938.688H128v42.688h-42.688z" fill="#E3E7E6" p-id="11486" data-darkreader-inline-fill="" style="--darkreader-inline-fill: #d8d4cf;"></path><path d="M128 938.688h42.688v42.688H128zM597.312 725.312H640V768h-42.688zM42.688 853.312h42.688V896H42.688zM341.312 128H384v42.688h-42.688z" p-id="11487"></path><path d="M384 128h42.688v42.688H384z" fill="#FFF100" p-id="11488" data-darkreader-inline-fill="" style="--darkreader-inline-fill: #fff21a;"></path><path d="M426.688 128h42.688v42.688h-42.688z" fill="#E50046" p-id="11489" data-darkreader-inline-fill="" style="--darkreader-inline-fill: #ff2c6c;"></path><path d="M469.312 128H512v42.688h-42.688z" fill="#E50046" p-id="11490" data-darkreader-inline-fill="" style="--darkreader-inline-fill: #ff2c6c;"></path><path d="M256 341.312h42.688V384H256z" p-id="11491"></path><path d="M298.688 341.312h42.688V384h-42.688z" fill="#E50046" p-id="11492" data-darkreader-inline-fill="" style="--darkreader-inline-fill: #ff2c6c;"></path><path d="M341.312 341.312H384V384h-42.688z" fill="#E50046" p-id="11493" data-darkreader-inline-fill="" style="--darkreader-inline-fill: #ff2c6c;"></path><path d="M384 341.312h42.688V384H384zM426.688 341.312h42.688V384h-42.688z" fill="#FFF100" p-id="11494" data-darkreader-inline-fill="" style="--darkreader-inline-fill: #fff21a;"></path><path d="M469.312 341.312H512V384h-42.688z" fill="#FFF100" p-id="11495" data-darkreader-inline-fill="" style="--darkreader-inline-fill: #fff21a;"></path><path d="M512 0h42.688v42.688H512z" p-id="11496"></path><path d="M512 128h42.688v42.688H512zM512 341.312h42.688V384H512z" fill="#E50046" p-id="11497" data-darkreader-inline-fill="" style="--darkreader-inline-fill: #b70038;"></path><path d="M554.688 0h42.688v42.688h-42.688z" p-id="11498"></path><path d="M554.688 128h42.688v42.688h-42.688zM554.688 341.312h42.688V384h-42.688z" fill="#E50046" p-id="11499" data-darkreader-inline-fill="" style="--darkreader-inline-fill: #b70038;"></path><path d="M597.312 0H640v42.688h-42.688z" p-id="11500"></path><path d="M597.312 128H640v42.688h-42.688zM597.312 341.312H640V384h-42.688z" fill="#E50046" p-id="11501" data-darkreader-inline-fill="" style="--darkreader-inline-fill: #b70038;"></path><path d="M640 0h42.688v42.688H640z" p-id="11502"></path><path d="M640 128h42.688v42.688H640zM640 298.688h42.688v42.688H640z" fill="#E50046" p-id="11503" data-darkreader-inline-fill="" style="--darkreader-inline-fill: #b70038;"></path><path d="M640 341.312h42.688V384H640zM640 384h42.688v42.688H640z" fill="#E50046" p-id="11504" data-darkreader-inline-fill="" style="--darkreader-inline-fill: #ff2c6c;"></path><path d="M640 426.688h42.688v42.688H640z" fill="#FFF100" p-id="11505" data-darkreader-inline-fill="" style="--darkreader-inline-fill: #fff21a;"></path><path d="M640 469.312h42.688V512H640z" fill="#FFF100" p-id="11506" data-darkreader-inline-fill="" style="--darkreader-inline-fill: #fff21a;"></path><path d="M640 512h42.688v42.688H640zM640 554.688h42.688v42.688H640z" fill="#E50046" p-id="11507" data-darkreader-inline-fill="" style="--darkreader-inline-fill: #ff2c6c;"></path><path d="M640 597.312h42.688V640H640zM640 640h42.688v42.688H640z" fill="#FFF100" p-id="11508" data-darkreader-inline-fill="" style="--darkreader-inline-fill: #fff21a;"></path><path d="M682.688 0h42.688v42.688h-42.688z" p-id="11509"></path><path d="M682.688 128h42.688v42.688h-42.688z" fill="#E50046" p-id="11510" data-darkreader-inline-fill="" style="--darkreader-inline-fill: #ff2c6c;"></path><path d="M682.688 256h42.688v42.688h-42.688zM682.688 341.312h42.688V384h-42.688z" fill="#FFF100" p-id="11511" data-darkreader-inline-fill="" style="--darkreader-inline-fill: #fff21a;"></path><path d="M725.312 0H768v42.688h-42.688z" p-id="11512"></path><path d="M725.312 128H768v42.688h-42.688z" fill="#FFF100" p-id="11513" data-darkreader-inline-fill="" style="--darkreader-inline-fill: #fff21a;"></path><path d="M725.312 213.312H768V256h-42.688z" fill="#E50046" p-id="11514" data-darkreader-inline-fill="" style="--darkreader-inline-fill: #ff2c6c;"></path><path d="M725.312 341.312H768V384h-42.688z" fill="#FFF100" p-id="11515" data-darkreader-inline-fill="" style="--darkreader-inline-fill: #fff21a;"></path><path d="M853.312 85.312H896V128h-42.688z" p-id="11516"></path><path d="M853.312 128H896v42.688h-42.688z" fill="#E50046" p-id="11517" data-darkreader-inline-fill="" style="--darkreader-inline-fill: #ff2c6c;"></path><path d="M896 128h42.688v42.688H896z" p-id="11518"></path><path d="M896 170.688h42.688v42.688H896z" fill="#E50046" p-id="11519" data-darkreader-inline-fill="" style="--darkreader-inline-fill: #ff2c6c;"></path><path d="M938.624 170.688h42.688v42.688h-42.688z" p-id="11520"></path><path d="M938.624 213.312h42.688V256h-42.688zM981.312 256H1024v42.688h-42.688z" p-id="11521"></path><path d="M768 128h42.688v42.688H768zM768 170.688h42.688v42.688H768z" fill="#FFF100" p-id="11522" data-darkreader-inline-fill="" style="--darkreader-inline-fill: #fff21a;"></path><path d="M768 341.312h42.688V384H768zM640 682.688h42.688v42.688H640z" fill="#E50046" p-id="11523" data-darkreader-inline-fill="" style="--darkreader-inline-fill: #b70038;"></path><path d="M640 725.312h42.688V768H640zM810.688 42.688h42.688v42.688h-42.688z" p-id="11524"></path><path d="M810.624 85.312h42.688V128h-42.688z" fill="#E50046" p-id="11525" data-darkreader-inline-fill="" style="--darkreader-inline-fill: #ff2c6c;"></path><path d="M810.688 128h42.688v42.688h-42.688z" fill="#FFF100" p-id="11526" data-darkreader-inline-fill="" style="--darkreader-inline-fill: #fff21a;"></path><path d="M810.688 341.312h42.688V384h-42.688z" fill="#E50046" p-id="11527" data-darkreader-inline-fill="" style="--darkreader-inline-fill: #ff2c6c;"></path><path d="M853.312 170.688H896v42.688h-42.688zM853.312 341.312H896V384h-42.688zM896 213.312h42.688V256H896zM896 341.312h42.688V384H896z" fill="#FFF100" p-id="11528" data-darkreader-inline-fill="" style="--darkreader-inline-fill: #999100;"></path><path d="M938.624 256h42.688v42.688h-42.688zM938.624 341.312h42.688V384h-42.688z" fill="#E50046" p-id="11529" data-darkreader-inline-fill="" style="--darkreader-inline-fill: #ff2c6c;"></path><path d="M981.312 298.688H1024v42.688h-42.688z" p-id="11530"></path><path d="M981.312 341.312H1024V384h-42.688zM981.312 384H1024v42.688h-42.688zM981.312 426.688H1024v42.688h-42.688z" p-id="11531"></path><path d="M981.312 469.312H1024V512h-42.688zM0 896h42.688v42.688H0zM0 938.688h42.688v42.624H0zM42.688 981.312h42.688V1024H42.688z" p-id="11532"></path><path d="M85.312 981.312H128V1024h-42.688zM256 469.312h42.688V512H256z" p-id="11533"></path><path d="M341.312 469.312H384V512h-42.688z" fill="#E50046" p-id="11534" data-darkreader-inline-fill="" style="--darkreader-inline-fill: #ff2c6c;"></path><path d="M469.312 469.312H512V512h-42.688z" fill="#FFF100" p-id="11535" data-darkreader-inline-fill="" style="--darkreader-inline-fill: #fff21a;"></path><path d="M341.312 512H384v42.688h-42.688z" fill="#E50046" p-id="11536" data-darkreader-inline-fill="" style="--darkreader-inline-fill: #ff2c6c;"></path><path d="M469.312 512H512v42.688h-42.688z" fill="#FFF100" p-id="11537" data-darkreader-inline-fill="" style="--darkreader-inline-fill: #fff21a;"></path><path d="M512 512h42.688v42.688H512zM554.688 469.312h42.688V512h-42.688zM341.312 554.688H384v42.688h-42.688z" fill="#E50046" p-id="11538" data-darkreader-inline-fill="" style="--darkreader-inline-fill: #b70038;"></path><path d="M469.312 554.688H512v42.688h-42.688z" fill="#FFF100" p-id="11539" data-darkreader-inline-fill="" style="--darkreader-inline-fill: #fff21a;"></path><path d="M341.312 597.312H384V640h-42.688zM384 597.312h42.688V640H384z" fill="#E50046" p-id="11540" data-darkreader-inline-fill="" style="--darkreader-inline-fill: #ff2c6c;"></path><path d="M469.312 597.312H512V640h-42.688zM554.688 554.688h42.688v42.688h-42.688z" fill="#FFF100" p-id="11541" data-darkreader-inline-fill="" style="--darkreader-inline-fill: #fff21a;"></path><path d="M554.688 597.312h42.688V640h-42.688z" fill="#FFF100" p-id="11542" data-darkreader-inline-fill="" style="--darkreader-inline-fill: #fff21a;"></path><path d="M213.312 725.312H256V768h-42.688zM256 725.312h42.688V768H256z" fill="#FFFFFF" p-id="11543" data-darkreader-inline-fill="" style="--darkreader-inline-fill: #e8e6e3;"></path><path d="M298.688 725.312h42.688V768h-42.688z" fill="#E3E7E6" p-id="11544" data-darkreader-inline-fill="" style="--darkreader-inline-fill: #d8d4cf;"></path><path d="M170.688 768h42.688v42.688h-42.688z" fill="#FFFFFF" p-id="11545" data-darkreader-inline-fill="" style="--darkreader-inline-fill: #e8e6e3;"></path><path d="M85.312 810.688H128v42.688h-42.688z" p-id="11546"></path><path d="M128 810.688h42.688v42.688H128z" fill="#FFFFFF" p-id="11547" data-darkreader-inline-fill="" style="--darkreader-inline-fill: #e8e6e3;"></path></svg>